<?xml version="1.0" encoding="UTF-8"?>
<svg id="Layer_1" data-name="Layer 1" xmlns="http://www.w3.org/2000/svg" viewBox="0 0 284.22 82.4">
  <path d="m226.97.48h18.83c.78,1.85,1.35,3.57,2.2,5.14,4.55,8.31,9.25,16.54,13.71,24.9.94,1.77,1.44,3.95,1.54,5.97.36,7.34.34,14.7.73,22.04.12,2.28,1.1,4.52,1.68,6.73-8.27,1.23-18.4-6.73-17.8-15.81.65-9.78-2.91-17.57-7.68-25.45-4.57-7.55-8.67-15.38-13.22-23.51Z"/>
  <path d="m134.47,65.54c-9.79.05-17.43-7.4-17.46-17.72-.03-13.22.04-26.43-.05-39.65-.02-2.49-.63-4.98-.97-7.54h16.75c0,1.44,0,2.77,0,4.09,0,16.08-.1,32.17.1,48.25.05,4.14,1.04,8.27,1.63,12.57Z"/>
  <path d="m22.37,70.44c-1.93-6.27-3.88-12.53-5.79-18.81C12.11,36.99,7.7,22.32,3.16,7.7,2.42,5.3,1.11,3.08,0,.63h18.86c.38,2.7.44,5.43,1.18,7.97,3.09,10.64,6.46,21.19,9.53,31.84.55,1.9.62,4.19.13,6.1-2.05,7.95-4.39,15.82-6.63,23.72-.24.06-.47.12-.71.18Z"/>
  <path d="m109.62,65.44c-11.11-.71-17.7-7.56-17.72-18.67-.02-13.07.04-26.15-.05-39.22-.02-2.25-.66-4.51-1.04-6.97h17.82c-.36,2.7-1.01,5.32-1.01,7.94,0,15.93.07,31.87.33,47.8.05,3.01,1.08,6.01,1.67,9.12Z"/>
  <path d="m172.56.65h16.77c0,1.57,0,3,0,4.43.08,16.93.07,33.85.32,50.78.05,3.24,1.13,6.47,1.73,9.64-9.46.42-17.59-7.06-17.68-17.06-.12-13.57.02-27.13-.08-40.7-.02-2.35-.68-4.7-1.05-7.08Z"/>
  <path d="m206.18,24.93c14.68,4.69,20.98,13.22,18.54,24.61-2.31,10.78-12.87,17.21-26.44,15.84,10.26-4.54,11.49-13.23,10.97-22.59-.47-8.36-3.32-15.33-12.48-17.96,7.92-5.84,7.25-19.2.21-24.09,3.93,0,7.66-.45,11.23.1,5.62.86,9.67,5.76,9.96,11.12.29,5.48-3.14,10.24-8.73,12.09-.94.31-1.91.53-3.26.89Z"/>
  <path d="m141.15,65.55c10.51-4.57,11.92-12.96,11.57-21.89-.34-8.53-2.87-16.04-12.93-18.94,4.95-2.92,5.98-7.24,5.96-12.01-.02-4.65-.73-8.99-5.38-11.57l.24-1.14c4.41.48,8.96.42,13.19,1.57,4.9,1.32,7.73,6.2,7.66,11.24-.07,4.86-3.03,9.1-7.7,10.92-1.15.45-2.38.71-4.42,1.32,6.55,1.46,11.9,3.75,15.48,8.85,3.59,5.11,4.55,10.74,3.03,16.73-2.52,9.92-11.85,15.33-26.69,14.92Z"/>
  <path d="m58.26,82.4c-5.12-16.73-9.9-32.41-14.75-48.07-.84-2.73-1.82-5.44-3-8.03-2.03-4.47-5.19-7.83-10.33-9.07,10.05-5.57,23.82-.58,27.57,10.13,2.96,8.45,5.32,17.12,7.93,25.69.18.58.32,1.24.24,1.83-.11.86-.42,1.69-.66,2.53-2.24,8-4.48,16-6.99,25.01Z"/>
  <path d="m77.85,11.56c-.96-3.66-1.93-7.31-2.89-10.97h11.29c-2.92,3.81-5.74,7.5-8.4,10.97Z"/>
  <path d="m276.15,9.64c-.42-2.68-.9-5.7-1.41-9h9.48c-2.24,2.5-5.21,5.81-8.07,9Z"/>
</svg>